<svg width="500" height="500" viewBox="0 0 500 500" fill="none" xmlns="http://www.w3.org/2000/svg">
<path d="M100.5 65.5L150.5 62.5L95.5 349L45.5 352L95.5 98L68 67.5L100.5 65.5Z" fill="#D9D9D9"/>
<path d="M124 64L254.5 56L233 141.5L178.5 145L186 112L124 116.5V64Z" fill="#D9D9D9"/>
<path d="M96 349L183.5 345.5L199.5 268L152 271.5L145.5 293.5L96 296.5V349Z" fill="#D9D9D9"/>
<path d="M129 170L229.5 165.5L218.5 220L118.5 225L129 170Z" fill="#D9D9D9"/>
<path d="M281 55.5L345.5 52L425.5 48L409 130.5L392.5 208.5L294.628 214.5L306.78 156.5L353 153.5L368 93.5L318.5 97L299 196L264.5 342L215 344L281 55.5Z" fill="#D9D9D9"/>
<path d="M171.5 244.5L177 192L273.5 180L208 491.5L151.5 499.5L203 244.5H171.5Z" fill="#1C8D3E"/>
<path d="M403.5 178.5L443.5 176.5L412.5 325.5L461 321.5L443 346L427.5 368L403.5 370L382 474L330.5 481.5L345 407L352 375L336.5 331L369.5 327.5L379 279L336.5 331L352 375L256.5 382L267 335.5L336.5 259L403.5 178.5Z" fill="#E8CB2C"/>
</svg>
